<mxfile host="app.diagrams.net" modified="2024-05-03T14:39:49.774Z" agent="Mozilla/5.0 (Windows NT 10.0; Win64; x64) AppleWebKit/537.36 (KHTML, like Gecko) Chrome/124.0.0.0 Safari/537.36" etag="7rP6_fhN3LBKY013WtWR" version="24.3.1" type="device">
  <diagram id="C5RBs43oDa-KdzZeNtuy" name="Page-1">
    <mxGraphModel dx="503" dy="737" grid="1" gridSize="10" guides="1" tooltips="1" connect="1" arrows="1" fold="1" page="1" pageScale="1" pageWidth="827" pageHeight="1169" math="0" shadow="0">
      <root>
        <mxCell id="WIyWlLk6GJQsqaUBKTNV-0" />
        <mxCell id="WIyWlLk6GJQsqaUBKTNV-1" parent="WIyWlLk6GJQsqaUBKTNV-0" />
        <mxCell id="lzqWqzChDHCCNov0YOmg-0" value="Location" style="text;html=1;align=center;verticalAlign=middle;whiteSpace=wrap;rounded=0;strokeColor=default;" parent="WIyWlLk6GJQsqaUBKTNV-1" vertex="1">
          <mxGeometry x="120" y="80" width="150" height="40" as="geometry" />
        </mxCell>
        <mxCell id="lzqWqzChDHCCNov0YOmg-11" style="edgeStyle=orthogonalEdgeStyle;rounded=0;orthogonalLoop=1;jettySize=auto;html=1;entryX=0.5;entryY=0;entryDx=0;entryDy=0;" parent="WIyWlLk6GJQsqaUBKTNV-1" source="lzqWqzChDHCCNov0YOmg-1" target="lzqWqzChDHCCNov0YOmg-7" edge="1">
          <mxGeometry relative="1" as="geometry" />
        </mxCell>
        <mxCell id="lzqWqzChDHCCNov0YOmg-1" value="+ Altitude: float&lt;div&gt;+ Longitude: float&lt;/div&gt;&lt;div&gt;+ Latitude: float&lt;/div&gt;&lt;div&gt;+TimeRead: DateTime&lt;/div&gt;" style="text;html=1;align=center;verticalAlign=middle;whiteSpace=wrap;rounded=0;strokeColor=default;" parent="WIyWlLk6GJQsqaUBKTNV-1" vertex="1">
          <mxGeometry x="120" y="120" width="150" height="90" as="geometry" />
        </mxCell>
        <mxCell id="lzqWqzChDHCCNov0YOmg-2" value="Orientation" style="text;html=1;align=center;verticalAlign=middle;whiteSpace=wrap;rounded=0;strokeColor=default;" parent="WIyWlLk6GJQsqaUBKTNV-1" vertex="1">
          <mxGeometry x="400" y="80" width="220" height="40" as="geometry" />
        </mxCell>
        <mxCell id="lzqWqzChDHCCNov0YOmg-3" value="+ Pitch: float&lt;div&gt;+ Roll: float&lt;/div&gt;&lt;div&gt;+TimeRead: DateTime&lt;/div&gt;" style="text;html=1;align=center;verticalAlign=middle;whiteSpace=wrap;rounded=0;strokeColor=default;" parent="WIyWlLk6GJQsqaUBKTNV-1" vertex="1">
          <mxGeometry x="400" y="120" width="220" height="50" as="geometry" />
        </mxCell>
        <mxCell id="lzqWqzChDHCCNov0YOmg-10" style="edgeStyle=orthogonalEdgeStyle;rounded=0;orthogonalLoop=1;jettySize=auto;html=1;" parent="WIyWlLk6GJQsqaUBKTNV-1" source="lzqWqzChDHCCNov0YOmg-4" target="lzqWqzChDHCCNov0YOmg-7" edge="1">
          <mxGeometry relative="1" as="geometry" />
        </mxCell>
        <mxCell id="lzqWqzChDHCCNov0YOmg-4" value="- GetOrientationDifference(): Orientation&lt;div&gt;+ IsVibrating: bool&lt;/div&gt;" style="text;html=1;align=center;verticalAlign=middle;whiteSpace=wrap;rounded=0;strokeColor=default;" parent="WIyWlLk6GJQsqaUBKTNV-1" vertex="1">
          <mxGeometry x="400" y="170" width="220" height="50" as="geometry" />
        </mxCell>
        <mxCell id="lzqWqzChDHCCNov0YOmg-7" value="GeoLocationRepo" style="text;html=1;align=center;verticalAlign=middle;whiteSpace=wrap;rounded=0;strokeColor=default;" parent="WIyWlLk6GJQsqaUBKTNV-1" vertex="1">
          <mxGeometry x="200" y="280" width="320" height="30" as="geometry" />
        </mxCell>
        <mxCell id="lzqWqzChDHCCNov0YOmg-9" value="+ Locations: List&amp;lt;Location&amp;gt;&lt;div&gt;+Orientations: List&amp;lt;Orientations&amp;gt;&lt;/div&gt;&lt;div&gt;+IsVibrating: bool&lt;/div&gt;&lt;div&gt;+IsBuzzing: bool&lt;/div&gt;" style="text;html=1;align=center;verticalAlign=middle;whiteSpace=wrap;rounded=0;strokeColor=default;" parent="WIyWlLk6GJQsqaUBKTNV-1" vertex="1">
          <mxGeometry x="200" y="310" width="320" height="80" as="geometry" />
        </mxCell>
        <mxCell id="bgrD8iQK7DiYV1Qy_NWe-0" value="GeoLocationViewModel" style="rounded=0;whiteSpace=wrap;html=1;" vertex="1" parent="WIyWlLk6GJQsqaUBKTNV-1">
          <mxGeometry x="200" y="440" width="320" height="30" as="geometry" />
        </mxCell>
        <mxCell id="bgrD8iQK7DiYV1Qy_NWe-1" value="+repo: GeoLocationRepo&lt;div&gt;+ISBuzzing: bool&lt;/div&gt;&lt;div&gt;+RecentLocation: Location&lt;/div&gt;&lt;div&gt;+RecentOrientation: Orientation&lt;/div&gt;" style="rounded=0;whiteSpace=wrap;html=1;" vertex="1" parent="WIyWlLk6GJQsqaUBKTNV-1">
          <mxGeometry x="200" y="470" width="320" height="70" as="geometry" />
        </mxCell>
        <mxCell id="bgrD8iQK7DiYV1Qy_NWe-2" value="+SetBuzzer():&amp;nbsp; void" style="rounded=0;whiteSpace=wrap;html=1;" vertex="1" parent="WIyWlLk6GJQsqaUBKTNV-1">
          <mxGeometry x="200" y="540" width="320" height="30" as="geometry" />
        </mxCell>
      </root>
    </mxGraphModel>
  </diagram>
</mxfile>
